<svg xmlns="http://www.w3.org/2000/svg" viewBox="0 0 1024 1024">
  <rect width="1024" height="1024" fill="#181717"/>
  <rect x="180" y="380" width="664" height="320" rx="160" fill="none" stroke="#F4EFE7" stroke-width="22"/>
  <path fill="#F4EFE7" d="M514.914 451.823C516.004 452.634 516.474 453.731 517.091 454.994L574.118 574.356C588.848 604.919 605.776 638.117 619.528 668.918C613.384 669.028 607.074 668.981 600.916 669.008C596.379 660.825 590.924 648.57 586.735 639.837C578.66 623.119 570.687 606.352 562.816 589.536L513.913 589.721C493.408 589.288 472.895 589.406 452.396 590.076C440.757 616.457 427.152 643.05 414.511 669.017C414.04 669.985 412.734 669.959 411.846 670.051C407.983 667.503 417.798 651.052 419.482 647.403C428.076 629.143 436.848 610.968 445.797 592.88C468.418 545.657 491.457 498.636 514.914 451.823Z"/>
  <path fill="#181717" d="M508.161 476.836C509.419 478.585 512.88 485.998 513.99 488.263C518.617 497.728 523.172 507.227 527.656 516.76C538.061 538.674 550.376 562.556 560.153 584.491L507.396 584.617L455.817 584.624C461.171 572.279 468.769 557.807 474.764 545.514L508.161 476.836Z"/>
</svg>
